<?xml version="1.0" encoding="utf-8"?>
<!-- Generator: Adobe Illustrator 15.0.0, SVG Export Plug-In . SVG Version: 6.00 Build 0)  -->
<svg version="1.2" baseProfile="tiny" id="Layer_1" xmlns="http://www.w3.org/2000/svg" xmlns:xlink="http://www.w3.org/1999/xlink"
	 x="0px" y="0px" width="200px" height="200px" viewBox="0 0 200 200" xml:space="preserve">
<path fill="#231F20" d="M175,66c4.559,0,8.337,3.407,8.922,7.809l-19.611,98.054C164.104,172.896,164,173.946,164,175
	c0,4.963-4.037,9-9,9H45c-4.962,0-9-4.037-9-9c0-1.054-0.104-2.104-0.311-3.138L16.079,73.809C16.663,69.407,20.441,66,25,66H175
	 M175,50H25C11.193,50,0,61.193,0,75l20,100c0,13.807,11.193,25,25,25h110c13.807,0,25-11.193,25-25l20-100
	C200,61.193,188.807,50,175,50L175,50z"/>
<line fill="none" stroke="#231F20" stroke-width="16" stroke-linecap="round" stroke-linejoin="round" stroke-miterlimit="10" x1="70" y1="95" x2="70" y2="145"/>
<line fill="none" stroke="#231F20" stroke-width="16" stroke-linecap="round" stroke-linejoin="round" stroke-miterlimit="10" x1="130" y1="95" x2="130" y2="145"/>
<path fill="none" stroke="#231F20" stroke-width="16" stroke-linecap="round" stroke-linejoin="round" stroke-miterlimit="10" d="
	M170.716,58C160.418,28.874,132.652,8,100,8C67.347,8,39.582,28.874,29.285,58"/>
</svg>
