<?xml version="1.0" encoding="utf-8"?>
<!-- Generator: Adobe Illustrator 15.0.0, SVG Export Plug-In . SVG Version: 6.00 Build 0)  -->
<svg height="200px" viewBox="0 0 200 200">
	<path fill="#FFFFFF" d="M75,142c-36.944,0-67-30.056-67-67C8,38.056,38.056,8,75,8c36.944,0,67,30.056,67,67C142,111.944,111.944,142,75,142z"/>
	<path fill="#231F20" d="M75,16c32.532,0,59,26.467,59,59c0,32.532-26.468,59-59,59c-32.533,0-59-26.468-59-59C16,42.467,42.467,16,75,16 M75,0C33.579,0,0,33.579,0,75c0,41.421,33.579,75,75,75s75-33.579,75-75C150,33.579,116.421,0,75,0L75,0z"/>
	<line fill="none" stroke="#231F20" stroke-width="16" stroke-linecap="round" stroke-linejoin="round" stroke-miterlimit="10" x1="122.645" y1="122.645" x2="191.355" y2="191.355"/>
</svg>
