<?xml version="1.0" encoding="utf-8"?>
<!-- Generator: Adobe Illustrator 15.0.0, SVG Export Plug-In . SVG Version: 6.00 Build 0)  -->
<svg version="1.2" baseProfile="tiny" id="Layer_1" xmlns="http://www.w3.org/2000/svg" xmlns:xlink="http://www.w3.org/1999/xlink"
	 x="0px" y="0px" width="200px" height="200px" viewBox="0 0 200 200" xml:space="preserve">
<g>
	<path d="M100,16c46.317,0,84,37.682,84,84c0,46.317-37.683,84-84,84c-46.318,0-84-37.683-84-84C16,53.682,53.682,16,100,16 M100,0
		C44.771,0,0,44.771,0,100s44.771,100,100,100s100-44.771,100-100S155.229,0,100,0L100,0z"/>
</g>
<g>
	<path d="M100,56c18.748,0,34,15.252,34,34c0,18.748-15.252,34-34,34c-18.748,0-34-15.252-34-34C66,71.252,81.252,56,100,56 M100,40
		c-27.614,0-50,22.386-50,50c0,27.615,22.386,50,50,50c27.615,0,50-22.385,50-50C150,62.386,127.615,40,100,40L100,40z"/>
</g>
<g>
	<path d="M100,140c12.087,0,23.697,3.627,33.577,10.489c6.603,4.586,12.136,10.384,16.347,17.073
		C135.543,178.229,118.183,184,100,184c-18.183,0-35.543-5.771-49.923-16.438c4.211-6.689,9.744-12.487,16.346-17.073
		C76.303,143.627,87.913,140,100,140 M100,124c-31.746,0-58.864,19.731-69.807,47.593C48.214,189.167,72.84,200,100,200
		s51.786-10.833,69.808-28.407C158.864,143.731,131.746,124,100,124L100,124z"/>
</g>
</svg>
